<?xml version='1.0' encoding='utf-8'?>
<svg xmlns="http://www.w3.org/2000/svg" viewBox="0 0 744.09 1052.4"> <defs> <filter id="w" x="-.44693" y="-.46295" width="1.8939" height="1.9259"> <feGaussianBlur stdDeviation="22.2492"/> </filter> <filter id="v" x="-.40509" y="-.51842" width="1.8102" height="2.0368"> <feGaussianBlur stdDeviation="20.6278"/> </filter> <filter id="u" x="-.63632" y="-.35387" width="2.2726" height="1.7077"> <feGaussianBlur stdDeviation="31.5272"/> </filter> <filter id="r" x="-.615" y="-.40474" width="2.23" height="1.8095"> <feGaussianBlur stdDeviation="19.9888"/> </filter> <filter id="h" x="-.1375" y="-.12043" width="1.275" height="1.2409"> <feGaussianBlur stdDeviation="30.0228"/> </filter> <filter id="c" x="-.47152" y="-.42082" width="1.943" height="1.8416"> <feGaussianBlur stdDeviation="16.2307"/> </filter> <filter id="a" x="-.5027" y="-.41524" width="2.0054" height="1.8305"> <feGaussianBlur stdDeviation="7.1883"/> </filter> <filter id="t" x="-.43641" y="-.24266" width="1.8728" height="1.4853"> <feGaussianBlur stdDeviation="19.1813"/> </filter> <filter id="s" x="-.38427" y="-.33768" width="1.7685" height="1.6754"> <feGaussianBlur stdDeviation="9.4886"/> </filter> <filter id="q" x="-.31402" y="-.41996" width="1.628" height="1.8399"> <feGaussianBlur stdDeviation="17.2726"/> </filter> <filter id="p" x="-.85714" y="-.51019" width="2.7143" height="2.0204"> <feGaussianBlur stdDeviation="17.1536"/> </filter> <filter id="o" x="-.29403" y="-.17501" width="1.5881" height="1.35"> <feGaussianBlur stdDeviation="5.8843"/> </filter> <filter id="n" x="-.79205" y="-.65425" width="2.5841" height="2.3085"> <feGaussianBlur stdDeviation="11.3259"/> </filter> <filter id="m" x="-.15033" y="-.38028" width="1.3007" height="1.7606"> <feGaussianBlur stdDeviation="11.38"/> </filter> <filter id="l" x="-.39344" y="-.51959" width="1.7869" height="2.0392"> <feGaussianBlur stdDeviation="24.3841"/> </filter> <filter id="k" x="-.29699" y="-.23812" width="1.594" height="1.4762"> <feGaussianBlur stdDeviation="15.0371"/> </filter> <filter id="j" x="-.40697" y="-.3263" width="1.8139" height="1.6526"> <feGaussianBlur stdDeviation="20.6054"/> </filter> <filter id="i" x="-.13376" y="-.16652" width="1.2675" height="1.333"> <feGaussianBlur stdDeviation="12.3767"/> </filter> <filter id="g" x="-.30027" y="-.37383" width="1.6006" height="1.7477"> <feGaussianBlur stdDeviation="27.7846"/> </filter> <filter id="f" x="-.21042" y="-.10205" width="1.4208" height="1.2041"> <feGaussianBlur stdDeviation="8.7846"/> </filter> <filter id="e" x="-.55032" y="-.26691" width="2.1006" height="1.5338"> <feGaussianBlur stdDeviation="22.975"/> </filter> <filter id="d" x="-.10343" y="-.33983" width="1.2069" height="1.6797"> <feGaussianBlur stdDeviation="8.0328"/> </filter> <filter id="b" x="-.19433" y="-.86222" width="1.3887" height="2.7244"> <feGaussianBlur stdDeviation="15.3377"/> </filter> </defs> <path d="m603.17 236.18" fill="none" stroke="#000"/> <path transform="matrix(.82613 0 0 .8783 24.406 44.129)" d="m312.08 507.61c-19.443-3.296-37.776-12.841-51.626-26.879-6.4257-6.5128-11.875-13.921-18.115-20.613s-13.489-12.784-22.157-15.714c-5.8986-1.9934-12.244-2.4502-18.088-4.5998-2.9218-1.0748-5.7228-2.5913-7.9545-4.762s-3.864-5.038-4.2048-8.1325c-0.24612-2.2349 0.18895-4.5299 1.1673-6.5542s2.4904-3.7776 4.3041-5.1063c3.6275-2.6574 8.3683-3.547 12.827-2.9654s8.6541 2.5398 12.352 5.0988 6.9414 5.7122 10.091 8.9217c5.8346 5.9456 11.429 12.16 16.215 18.979 5.117 7.2911 9.2728 15.221 14.394 22.509 12.073 17.181 29.55 30.505 49.315 37.598" fill="#968bcc" filter="url(#v)" stroke="#000" stroke-width="1.174"/> <path d="m456.95 379.59c8.2471-15.177 17.136-30.074 26.64-44.649 6.1084-9.3675 12.505-18.644 20.34-26.917s17.199-15.556 28.159-20.179c4.8383-2.0405 10.05-3.5636 15.398-3.6234s10.862 1.4727 14.657 4.8467c2.7968 2.4862 4.5324 5.8714 5.0005 9.3752s-0.30414 7.109-2.0182 10.287-4.3484 5.9308-7.4792 8.0741-6.7493 3.6863-10.531 4.6805c-6.2186 1.6349-12.8 1.7952-19.126 3.0582-4.7176 0.94189-9.2608 2.4915-13.661 4.2814-24.997 10.167-45.725 28.507-57.378 50.765" fill="#968bcc" filter="url(#w)" stroke="#000" stroke-width="1.1444"/> <path d="m637.15 264.02c4.5328-2.9297 9.1662-5.723 13.444-9.0139s8.2229-7.1203 11.015-11.739c2.128-3.5199 3.5437-7.4244 4.6958-11.373 3.4624-11.866 4.6301-24.57 1.9774-36.644s-9.3404-23.461-19.443-30.584c-5.0513-3.5616-10.898-6.0235-17.005-6.9708s-12.469-0.36123-18.24 1.8533-10.926 6.0718-14.537 11.088-5.6412 11.185-5.5396 17.364c0.1471 8.9519 4.5577 17.181 7.9623 25.461 1.7023 4.1403 3.1818 8.4134 3.7567 12.853s0.20279 9.082-1.6686 13.149c-1.6534 3.5928-4.3743 6.5612-6.7964 9.6877s-4.6416 6.6413-4.9934 10.581c-0.21278 2.3832 0.28818 4.8139 1.3478 6.9591s2.6679 4.0051 4.5857 5.4357c3.8357 2.8611 8.8113 3.9405 13.584 3.6008s9.3704-2.0092 13.624-4.2016 8.2107-4.9081 12.23-7.5057" fill="#1a1a1a" filter="url(#r)" stroke="#000" stroke-opacity=".9786"/> <path d="m631.92 244.14c4.5328-2.9297 9.1662-5.723 13.444-9.0139s8.2229-7.1203 11.015-11.739c2.128-3.5199 3.5437-7.4244 4.6958-11.373 3.4624-11.866 4.6301-24.57 1.9774-36.644s-9.3404-23.461-19.443-30.584c-5.0513-3.5616-10.898-6.0235-17.005-6.9708s-12.469-0.36123-18.24 1.8533-10.926 6.0718-14.537 11.088-5.6412 11.185-5.5396 17.364c0.1471 8.9519 4.5577 17.181 7.9623 25.461 1.7023 4.1403 3.1818 8.4134 3.7567 12.853s0.20279 9.082-1.6686 13.149c-1.6534 3.5928-4.3743 6.5612-6.7964 9.6877s-4.6416 6.6413-4.9934 10.581c-0.21278 2.3832 0.28818 4.8139 1.3478 6.9591s2.6679 4.0051 4.5857 5.4357c3.8357 2.8611 8.8113 3.9405 13.584 3.6008s9.3704-2.0092 13.624-4.2016 8.2107-4.9081 12.23-7.5057" fill="#000080" stroke="#000"/> <path d="m177.04 283.97c0 25.562-19.385 46.283-43.297 46.283s-43.297-20.722-43.297-46.283 19.385-46.283 43.297-46.283 43.297 20.722 43.297 46.283z" fill="#1a1a1a" fill-opacity=".9947" fill-rule="evenodd" filter="url(#c)" stroke="#000" stroke-linecap="square" stroke-linejoin="round" stroke-width=".29302"/> <path d="m159.25 273.51c0 25.562-19.385 46.283-43.297 46.283s-43.297-20.722-43.297-46.283 19.385-46.283 43.297-46.283 43.297 20.722 43.297 46.283z" fill="#000080" fill-opacity=".9947" fill-rule="evenodd" stroke="#000" stroke-linecap="square" stroke-linejoin="round" stroke-width=".3"/> <path d="m368.65 419.47c-31.66-7.7971-60.531-26.483-80.611-52.173s-31.239-58.219-31.158-90.825c0.0791-31.947 11.205-64.206 32.84-87.712 10.818-11.753 24.14-21.239 38.918-27.3s31.007-8.6615 46.912-7.179 31.451 7.0798 44.455 16.356 23.405 22.239 29.329 37.073 7.3036 31.5 3.5713 47.032-12.611 29.833-25.085 39.811c-7.8884 6.3093-17.035 10.839-25.332 16.6-4.1486 2.8805-8.1019 6.0862-11.45 9.8672s-6.0859 8.1608-7.5966 12.98c-1.9846 6.3312-1.7658 13.292 0.37753 19.571s6.1698 11.866 11.291 16.085 11.311 7.0817 17.792 8.5044 13.244 1.4232 19.775 0.2553c13.063-2.3357 24.98-9.263 34.927-18.046s18.095-19.396 25.812-30.192 15.09-21.876 23.772-31.911 18.804-19.081 30.78-24.797 25.976-7.8799 38.705-4.1307c6.3646 1.8746 12.325 5.209 17.079 9.8381s8.2698 10.564 9.802 17.02c1.7012 7.1676 0.92462 14.819-1.6725 21.713s-6.9578 13.049-12.22 18.205c-10.524 10.311-24.317 16.522-38.007 21.967s-27.777 10.431-39.82 18.919c-6.0213 4.244-11.485 9.3604-15.658 15.432s-7.0216 13.128-7.6792 20.465c-0.96748 10.794 2.9153 21.728 9.5928 30.263s15.984 14.783 26.015 18.885c20.062 8.2031 42.381 8.0327 64.023 9.2017 10.821 0.58449 21.674 1.5417 32.204 4.1026s20.778 6.7856 29.355 13.41 15.409 15.773 18.191 26.247c1.391 5.237 1.7591 10.76 0.92219 16.113s-2.8902 10.531-6.0754 14.914c-4.4869 6.1748-11.137 10.634-18.393 13.003s-15.089 2.7149-22.638 1.5836c-15.097-2.2626-28.712-10.18-41.395-18.676s-25.026-17.817-39.192-23.507c-7.0828-2.8451-14.597-4.7474-22.226-5.0083s-15.381 1.1647-22.166 4.6624c-9.4182 4.8556-16.581 13.571-20.451 23.435s-4.5881 20.8-3.0399 31.283c3.0964 20.965 14.756 39.554 26.49 57.201s24.059 35.606 28.801 56.261c2.3707 10.328 2.7362 21.23 0.0593 31.482s-8.5292 19.813-17.066 26.091c-10.132 7.4502-23.548 9.8246-35.905 7.4857s-23.635-9.1234-32.439-18.104-15.245-20.078-19.912-31.756-7.6227-23.967-10.094-36.298c-4.9417-24.662-8.1639-50.18-19.59-72.587-5.7132-11.204-13.508-21.497-23.572-29.038s-22.502-12.197-35.074-11.868c-10.802 0.28258-21.338 4.2133-30.286 10.271s-16.373 14.175-22.487 23.084c-12.228 17.818-19.262 38.586-28.415 58.162-4.5766 9.7883-9.7325 19.361-16.25 27.979s-14.451 16.286-23.836 21.64-20.285 8.3093-31.055 7.4323-21.338-5.7755-28.259-14.074c-6.4482-7.7323-9.4495-18.041-9.0896-28.102s3.926-19.859 9.3278-28.356c10.804-16.993 28.264-28.466 45.492-38.892s35.168-20.673 47.919-36.257c6.3756-7.7922 11.327-16.884 13.474-26.72s1.3628-20.442-3.073-29.48c-4.5883-9.3488-12.746-16.521-21.615-21.979s-18.559-9.4185-27.898-14.027-18.508-10.005-25.497-17.725c-3.4949-3.8599-6.4069-8.2816-8.2966-13.134s-2.7372-10.143-2.1632-15.318c0.58049-5.2339 2.6146-10.28 5.7023-14.546s7.212-7.7541 11.86-10.23c9.2954-4.9518 20.493-5.7348 30.732-3.2686s19.564 8.0043 27.502 14.926 14.573 15.21 20.674 23.795c12.203 17.169 22.744 36.04 38.998 49.437 8.1273 6.6986 17.673 11.897 28.015 13.886s21.514 0.57763 30.468-4.9667c5.8918-3.6479 10.706-9.0139 13.695-15.266s4.1438-13.367 3.2843-20.244-3.73-13.489-8.1663-18.812-10.423-9.3394-17.031-11.425" fill="#1a1a1a" filter="url(#h)" stroke="#000"/> <path transform="matrix(.96657 .37532 -.41051 1.0572 105.88 -307.88)" d="m632.83 231.11c-1.6855-4.422-1.2421-9.6025 1.1705-13.674s6.7437-6.9479 11.432-7.5929c4.2897-0.59018 8.6442 0.60741 12.602 2.363 6.7849 3.0092 12.887 7.7942 16.811 14.095s5.5236 14.163 3.6683 21.35c-1.4762 5.7179-4.9735 10.693-8.7363 15.245s-7.8824 8.8553-10.955 13.898c-1.9331 3.1727-3.4538 6.6393-5.9163 9.4213-1.2312 1.391-2.7004 2.5979-4.3969 3.3546s-3.6323 1.0423-5.4399 0.61428c-2.2579-0.53459-4.1732-2.1599-5.3332-4.1694s-1.6128-4.372-1.5888-6.6921c0.048-4.6404 1.9007-9.0433 2.9838-13.556 2.9243-12.183-0.0674-25.646-7.8765-35.445" fill="#001454" fill-opacity=".9961" filter="url(#o)" stroke="#000" stroke-width=".92217"/> <path d="m343.48 420.52c-31.66-7.7971-60.531-26.483-80.611-52.173s-31.239-58.219-31.158-90.825c0.0791-31.947 11.205-64.206 32.84-87.712 10.818-11.753 24.14-21.239 38.918-27.3s31.007-8.6615 46.912-7.179 31.451 7.0798 44.455 16.356 23.405 22.239 29.329 37.073 7.3036 31.5 3.5713 47.032-12.611 29.833-25.085 39.811c-7.8884 6.3093-17.035 10.839-25.332 16.6-4.1486 2.8805-8.1019 6.0862-11.45 9.8672s-6.0859 8.1608-7.5966 12.98c-1.9846 6.3312-1.7658 13.292 0.37753 19.571s6.1698 11.866 11.291 16.085 11.311 7.0817 17.792 8.5044 13.244 1.4232 19.775 0.2553c13.063-2.3357 24.98-9.263 34.927-18.046s18.095-19.396 25.812-30.192 15.09-21.876 23.772-31.911 18.804-19.081 30.78-24.797 25.976-7.8799 38.705-4.1307c6.3646 1.8746 12.325 5.209 17.079 9.8381s8.2698 10.564 9.802 17.02c1.7012 7.1676 0.92462 14.819-1.6725 21.713s-6.9578 13.049-12.22 18.205c-10.524 10.311-24.317 16.522-38.007 21.967s-27.777 10.431-39.82 18.919c-6.0213 4.244-11.485 9.3604-15.658 15.432s-7.0216 13.128-7.6792 20.465c-0.96748 10.794 2.9153 21.728 9.5928 30.263s15.984 14.783 26.015 18.885c20.062 8.2031 42.381 8.0327 64.023 9.2017 10.821 0.58449 21.674 1.5417 32.204 4.1026s20.778 6.7856 29.355 13.41 15.409 15.773 18.191 26.247c1.391 5.237 1.7591 10.76 0.92219 16.113s-2.8902 10.531-6.0754 14.914c-4.4869 6.1748-11.137 10.634-18.393 13.003s-15.089 2.7149-22.638 1.5836c-15.097-2.2626-28.712-10.18-41.395-18.676s-25.026-17.817-39.192-23.507c-7.0828-2.8451-14.597-4.7474-22.226-5.0083s-15.381 1.1647-22.166 4.6624c-9.4182 4.8556-16.581 13.571-20.451 23.435s-4.5881 20.8-3.0399 31.283c3.0964 20.965 14.756 39.554 26.49 57.201s24.059 35.606 28.801 56.261c2.3707 10.328 2.7362 21.23 0.0593 31.482s-8.5292 19.813-17.066 26.091c-10.132 7.4502-23.548 9.8246-35.905 7.4857s-23.635-9.1234-32.439-18.104-15.245-20.078-19.912-31.756-7.6227-23.967-10.094-36.298c-4.9417-24.662-8.1639-50.18-19.59-72.587-5.7132-11.204-13.508-21.497-23.572-29.038s-22.502-12.197-35.074-11.868c-10.802 0.28258-21.338 4.2133-30.286 10.271s-16.373 14.175-22.487 23.084c-12.228 17.818-19.262 38.586-28.415 58.162-4.5766 9.7883-9.7325 19.361-16.25 27.979s-14.451 16.286-23.836 21.64-20.285 8.3093-31.055 7.4323-21.338-5.7755-28.259-14.074c-6.4482-7.7323-9.4495-18.041-9.0896-28.102s3.926-19.859 9.3278-28.356c10.804-16.993 28.264-28.466 45.492-38.892s35.168-20.673 47.919-36.257c6.3756-7.7922 11.327-16.884 13.474-26.72s1.3628-20.442-3.073-29.48c-4.5883-9.3488-12.746-16.521-21.615-21.979s-18.559-9.4185-27.898-14.027-18.508-10.005-25.497-17.725c-3.4949-3.8599-6.4069-8.2816-8.2966-13.134s-2.7372-10.143-2.1632-15.318c0.58049-5.2339 2.6146-10.28 5.7023-14.546s7.212-7.7541 11.86-10.23c9.2954-4.9518 20.493-5.7348 30.732-3.2686s19.564 8.0043 27.502 14.926 14.573 15.21 20.674 23.795c12.203 17.169 22.744 36.04 38.998 49.437 8.1273 6.6986 17.673 11.897 28.015 13.886s21.514 0.57763 30.468-4.9667c5.8918-3.6479 10.706-9.0139 13.695-15.266s4.1438-13.367 3.2843-20.244-3.73-13.489-8.1663-18.812-10.423-9.3394-17.031-11.425" fill="#10108a" stroke="#000" stroke-linejoin="round"/> <path d="m324.03 360.17c-14.725-7.0506-27.947-17.223-38.538-29.649-14.177-16.634-23.57-37.37-26.327-59.053s1.1908-44.228 11.505-63.498c4.8717-9.1015 11.177-17.519 19.101-24.134s17.522-11.376 27.734-12.88 21.024 0.38332 29.722 5.942 15.072 14.895 16.328 25.142c0.89124 7.2741-0.74831 14.712-3.8231 21.364s-7.536 12.578-12.426 18.036c-9.7809 10.915-21.491 20.285-29.205 32.747-4.3045 6.9536-7.2444 14.721-8.8933 22.731-4.5056 21.889 1.0613 45.645 14.822 63.252" fill="#001454" fill-opacity=".9947" filter="url(#t)" stroke="#000" stroke-width="1.1272"/> <path transform="matrix(2.6771 0 0 1.3906 -502.56 -134.97)" d="m335.31 274.09c0 11.347-2.2077 20.546-4.931 20.546s-4.931-9.1986-4.931-20.546 2.2077-20.546 4.931-20.546 4.931 9.1986 4.931 20.546z" fill="#f2f2f2" fill-opacity=".9947" stroke="#000" stroke-linecap="square" stroke-linejoin="round" stroke-width=".51829"/> <path transform="matrix(1.7848 0 0 1.4485 -133.67 -137.46)" d="m294.01 275.32c0 3.858-1.1958 6.9856-2.671 6.9856s-2.6709-3.1275-2.6709-6.9856 1.1958-6.9856 2.6709-6.9856 2.671 3.1275 2.671 6.9856z" fill-opacity=".9947" fill-rule="evenodd" stroke="#000" stroke-linecap="square" stroke-linejoin="round" stroke-width=".62194"/> <path transform="matrix(1.17 0 0 1.2321 31.651 -92.086)" d="m300.25 285.2c-0.54421-1.6323-0.28486-3.7888 0.57929-4.8168s2.0059-0.53807 2.5501 1.0942c0.39732 1.1917 0.37687 2.7175-0.0519 3.8697l-1.5128-2.0084z" fill="#f2f2f2" fill-opacity=".9947" stroke="#000" stroke-linecap="square" stroke-linejoin="round" stroke-width=".24986"/> <path transform="matrix(.67431 0 0 .69118 179.62 66.733)" d="m300.25 285.2c-0.54421-1.6323-0.28486-3.7888 0.57929-4.8168s2.0059-0.53807 2.5501 1.0942c0.39732 1.1917 0.37687 2.7175-0.0519 3.8697l-1.5128-2.0084z" fill="#f2f2f2" fill-opacity=".9947" stroke="#000" stroke-linecap="square" stroke-linejoin="round" stroke-width=".43944"/> <path transform="matrix(2.6771 0 0 1.3906 -540.91 -134.43)" d="m335.31 274.09c0 11.347-2.2077 20.546-4.931 20.546s-4.931-9.1986-4.931-20.546 2.2077-20.546 4.931-20.546 4.931 9.1986 4.931 20.546z" fill="#f2f2f2" fill-opacity=".9947" stroke="#000" stroke-linecap="square" stroke-linejoin="round" stroke-width=".51829"/> <path transform="matrix(1.7848 0 0 1.4485 -172.02 -136.92)" d="m294.01 275.32c0 3.858-1.1958 6.9856-2.671 6.9856s-2.6709-3.1275-2.6709-6.9856 1.1958-6.9856 2.6709-6.9856 2.671 3.1275 2.671 6.9856z" fill-opacity=".9947" fill-rule="evenodd" stroke="#000" stroke-linecap="square" stroke-linejoin="round" stroke-width=".62194"/> <path transform="matrix(1.17 0 0 1.2321 -6.6987 -91.543)" d="m300.25 285.2c-0.54421-1.6323-0.28486-3.7888 0.57929-4.8168s2.0059-0.53807 2.5501 1.0942c0.39732 1.1917 0.37687 2.7175-0.0519 3.8697l-1.5128-2.0084z" fill="#f2f2f2" fill-opacity=".9947" stroke="#000" stroke-linecap="square" stroke-linejoin="round" stroke-width=".24986"/> <path transform="matrix(.67431 0 0 .69118 141.27 67.276)" d="m300.25 285.2c-0.54421-1.6323-0.28486-3.7888 0.57929-4.8168s2.0059-0.53807 2.5501 1.0942c0.39732 1.1917 0.37687 2.7175-0.0519 3.8697l-1.5128-2.0084z" fill="#f2f2f2" fill-opacity=".9947" stroke="#000" stroke-linecap="square" stroke-linejoin="round" stroke-width=".43944"/> <path d="m356.96 297.87c0 2.8046-3.0071 5.0783-6.7166 5.0783s-6.7166-2.2736-6.7166-5.0783 3.0072-5.0782 6.7166-5.0782 6.7166 2.2736 6.7166 5.0782z" fill="#fff" fill-opacity=".9947" stroke="#000" stroke-linecap="square" stroke-linejoin="round" stroke-width=".3"/> <path d="m598.44 163.32c-1.6855-4.422-1.2421-9.6025 1.1705-13.674s6.7437-6.9479 11.432-7.5929c4.2897-0.59018 8.6442 0.60741 12.602 2.363 6.7849 3.0092 12.887 7.7942 16.811 14.095s5.5236 14.163 3.6683 21.35c-1.4762 5.7179-4.9735 10.693-8.7363 15.245s-7.8824 8.8553-10.955 13.898c-1.9331 3.1727-3.4538 6.6393-5.9163 9.4213-1.2312 1.391-2.7004 2.5979-4.3969 3.3546s-3.6323 1.0423-5.4399 0.61428c-2.2579-0.53459-4.1732-2.1599-5.3332-4.1694s-1.6128-4.372-1.5888-6.6921c0.048-4.6404 1.9007-9.0433 2.9838-13.556 2.9243-12.183-0.0674-25.646-7.8765-35.445" fill="#fff" filter="url(#p)" stroke="#000"/> <path d="m380.1 529.11c12.55 48.207 36.71 93.349 69.859 130.53 8.5974 9.6437 17.887 18.896 24.158 30.192 4.254 7.6636 7.0502 16.468 5.9341 25.162-0.55805 4.3469-2.1094 8.5951-4.7018 12.129s-6.2478 6.3246-10.425 7.6498c-3.4803 1.1041-7.2512 1.178-10.825 0.43143s-6.9556-2.2954-9.9896-4.3268c-6.068-4.0628-10.673-9.9436-14.795-15.971-1.6869-2.4667-3.3149-4.9811-4.6829-7.638-4.5945-8.9228-6.0847-19.065-7.6699-28.975-8.0434-50.285-20.209-99.91-36.336-148.21" fill="#001454" fill-opacity=".9961" filter="url(#f)"/> <path transform="matrix(.85063 0 0 .90698 69.981 58.184)" d="m418.41 522.23c12.55 48.207 36.71 93.349 69.859 130.53 8.5974 9.6437 17.887 18.896 24.158 30.192 4.254 7.6636 7.0502 16.468 5.9341 25.162-0.55805 4.3469-2.1094 8.5951-4.7018 12.129s-6.2478 6.3246-10.425 7.6498c-3.4803 1.1041-7.2512 1.178-10.825 0.43143s-6.9556-2.2954-9.9896-4.3268c-6.068-4.0628-10.673-9.9436-14.795-15.971-1.6869-2.4667-3.3149-4.9811-4.6829-7.638-4.5945-8.9228-6.0847-19.065-7.6699-28.975-8.0434-50.285-20.209-99.91-36.336-148.21" fill="#ebe9f4" filter="url(#e)"/> <path transform="matrix(.99482 -.10162 .10162 .99482 -55.355 17.681)" d="m280.51 540.09c-17.242 21.469-33.52 43.712-48.766 66.642-8.266 12.431-16.299 25.207-21.21 39.305-3.6276 10.415-5.5954 21.629-11.664 30.838-3.0342 4.6044-7.1246 8.6275-12.144 10.911s-11.018 2.6813-16.04 0.40325c-4.0182-1.8228-7.2063-5.2539-9.093-9.2425s-2.5234-8.5019-2.2182-12.904c0.61032-8.8034 4.8099-16.915 9.1587-24.594 3.9501-6.9747 8.1218-13.873 13.309-19.984 12.909-15.209 31.182-24.578 47.685-35.787 19.354-13.145 36.71-29.228 51.29-47.526" fill="#001454" fill-opacity=".9961" filter="url(#k)" stroke="#000"/> <path transform="matrix(.71088 0 0 .79362 37.435 134.45)" d="m276.58 537.15c-17.242 21.469-33.52 43.712-48.766 66.642-8.266 12.431-16.299 25.207-21.21 39.305-3.6276 10.415-5.5954 21.629-11.664 30.838-3.0342 4.6044-7.1246 8.6275-12.144 10.911s-11.018 2.6813-16.04 0.40325c-4.0182-1.8228-7.2063-5.2539-9.093-9.2425s-2.5234-8.5019-2.2182-12.904c0.61032-8.8034 4.8099-16.915 9.1587-24.594 3.9501-6.9747 8.1218-13.873 13.309-19.984 12.909-15.209 31.182-24.578 47.685-35.787 19.354-13.145 36.71-29.228 51.29-47.526" fill="#f0eef6" filter="url(#j)" stroke="#000" stroke-width="1.3314"/> <path d="m146.55 283.22c0 11.473-7.6825 20.774-17.159 20.774s-17.159-9.3007-17.159-20.774 7.6826-20.774 17.159-20.774 17.159 9.3007 17.159 20.774z" fill="#001454" fill-opacity=".9961" fill-rule="evenodd" filter="url(#a)" stroke="#000" stroke-linecap="square" stroke-linejoin="round" stroke-width=".20561"/> <path transform="matrix(1.2383 0 0 1.1315 -27.326 -38.323)" d="m131.82 261.6c0 11.473-7.6825 20.774-17.159 20.774s-17.159-9.3007-17.159-20.774 7.6826-20.774 17.159-20.774 17.159 9.3007 17.159 20.774z" fill="#f2f2f6" fill-rule="evenodd" filter="url(#n)" stroke="#000" stroke-linecap="square" stroke-linejoin="round" stroke-width=".1737"/> <path d="m451.64 499.18c37.905 1.0643 75.715 4.9912 112.93 11.729 15.1 2.734 30.097 5.9289 45.133 8.9472 6.0735 1.2192 12.275 2.4521 17.625 5.3666 2.6753 1.4572 5.1081 3.3345 6.9386 5.6483s3.0399 5.078 3.2198 7.9363c0.24292 3.8598-1.4338 7.7281-4.2424 10.601s-6.6804 4.7793-10.765 5.6672-8.3757 0.79387-12.498 0.0668-8.0903-2.0735-11.914-3.6676c-7.0799-2.9515-13.697-6.7508-20.376-10.41-11.011-6.033-22.255-11.718-33.838-16.759-29.267-12.736-60.664-21.309-92.738-25.322" fill="#001454" fill-opacity=".9961" filter="url(#d)"/> <path transform="matrix(.79483 -.07275 .07442 .77699 92.134 160.17)" d="m446.73 469.71c37.905 1.0643 75.715 4.9912 112.93 11.729 15.1 2.734 30.097 5.9289 45.133 8.9472 6.0735 1.2192 12.275 2.4521 17.625 5.3666 2.6753 1.4572 5.1081 3.3345 6.9386 5.6483s3.0399 5.078 3.2198 7.9363c0.24292 3.8598-1.4338 7.7281-4.2424 10.601s-6.6804 4.7793-10.765 5.6672-8.3757 0.79387-12.498 0.0668-8.0903-2.0735-11.914-3.6676c-7.0799-2.9515-13.697-6.7508-20.376-10.41-11.011-6.033-22.255-11.718-33.838-16.759-29.267-12.736-60.664-21.309-92.738-25.322" fill="#eeecf4" filter="url(#b)"/> <path transform="matrix(.5236 0 0 .50401 197.09 264.4)" d="m354.96 398.32c0.88215 5.9503 9.0524-62.427 12.891-57.796s3.3354 82.258 9.0189 84.228-10.608-71.721-4.726-72.983 33.919 69.911 38.295 65.784c4.4853-4.2308 7.7732-9.6953 12.696-13.408 2.4612-1.8565 5.352-3.2452 8.4225-3.5218 1.5352-0.13831 3.1015 5e-3 4.5677 0.48112s2.8298 1.2877 3.9028 2.3943c1.3698 1.4127 37.885-98.087 38.231-96.15s15.201-15.548-35.952 107.21c-1.5086 3.6206 43.666-117.61 41.385-114.4s-12.16 133.14-13.426 136.87c-0.63289 1.8632-40.379 1.8906-40.253 3.8544s0.73481 3.9148 1.8774 5.5169c1.0729 1.5044 2.5797-71.413 4.2088-70.541s46.542 9.2738 48.302 9.8365-39.62 67.365-37.922 68.093 38.418-59.41 38.418-59.41c-0.90163 2.0857 30.818 46.511 31.426 48.669s55.175-18.968 55.094-16.728c-0.16266 4.4807-117.58 51.774-117.74 56.255-0.0787 2.2404 0.0793 4.5057 0.69149 6.6623s1.6957 4.2062 3.2971 5.7751 3.7422 2.6292 5.9814 2.7382c1.1196 0.0545 2.2531-0.12764 3.2888-0.55629s1.9713-1.1056 2.6809-1.9732c0.69745-0.85282 1.1716-1.8844 1.3795-2.9663s92.092-58.742 91.79-59.801c-0.60328-2.1192-94.139 52.619-96.128 51.672-1.286-0.61261-2.7213-0.88779-4.1457-0.87307s-2.8385 0.31424-4.1761 0.80406c-2.6752 0.97965 94.432-59.683 92.234-57.87-11.438 9.437-95.884 90.248-98.671 104.94-14.21 74.924-58.147 201.55-41.615 92.261 0.90344-5.9723 0.93196-19.33 1.977-13.4 0.48737 2.7656 22.031 36.643 22.358 39.432 0.16355 1.3946-18.583-18.627-18.836-17.246s6.7204 2.7244 5.8604 3.8344c-1.2842 1.6576-5.5503-1.1263-5.3526 1.0411 14.926 163.69 0.30941-0.46361-2.2937-9.0732-0.62258-2.0591 0.45046-6.5258-0.60039-8.3404s-3.5526 0.0398-3.8293-2.0387c-0.55348-4.1571-16.621 9.1699-15.532 5.1201s8.3307-86.252 6.7874-82.374c-48.749 122.52-62.14-16.794-64.738-22.836-2.5552-5.9437 55.042-7.1535 49.9-11.075-10.284-7.843-23.986-10.521-36.777-8.6127s-24.69 8.1123-34.665 16.344 45.646-10.798 38.378-0.10049c-2.6823 3.9482-165.03-3.355-160.41-4.0269 82.946-12.04 277.22-52.074 56.11-11.124-2.3391 0.43321-10.257 16.867-12.643 16.794s32.762 14.923 30.675 13.764-40.245 16.005-29.398-8.8826c18.498-42.442 2.1491-20.165 2.5393-22.519 0.53268-3.2138 11.974 46.632 14.425 44.486s5.3109-3.7598 8.0298-5.5542 5.3672-3.8389 7.128-6.5798c0.88039-1.3704 1.524-2.9053 1.7768-4.5144s0.10447-3.2937-0.52592-4.7957c-0.86864-2.0696-2.5819-3.6715-4.4189-4.961s-3.8411-2.3328-5.6376-3.6782-3.4192-3.0662-4.0936-5.207c-0.33721-1.0704-0.4231-2.2294-0.16919-3.3226s0.85838-2.1146 1.7442-2.8036c0.95566-0.74342 2.1973-1.0706 3.4073-1.0296s2.3903 0.43164 3.4592 1.0003c2.1378 1.1374-58.095-12.648-56.211-11.127 4.535 3.6597 72.14 21.226 77.861 22.334s11.563 1.4167 17.346 2.1373c13.815 1.7215 27.663 5.805 41.424 3.6986 8.4831-1.2985 16.485-4.9245 23.671-9.6164 8.8701-5.7916 1.7582-95.299 6.4411-104.8 6.6017-13.396 21.229 52.389 16.49 38.227-6.199-18.527-19.727-34.49-36.986-43.643" fill="#001454" fill-opacity=".9961" filter="url(#i)"/> <path d="m359.87 389.48c0.88215 5.9503 3.4233 11.646 7.2622 16.277s8.9644 8.1844 14.648 10.155 11.909 2.3519 17.79 1.0906 11.403-4.162 15.779-8.2895c4.4853-4.2308 7.7732-9.6953 12.696-13.408 2.4612-1.8565 5.352-3.2452 8.4225-3.5218 1.5352-0.13831 3.1015 5e-3 4.5677 0.48112s2.8298 1.2877 3.9028 2.3943c1.3698 1.4127 2.2345 3.2762 2.5806 5.2133s0.19005 3.9448-0.301 5.8503c-0.98209 3.811-3.2429 7.1491-5.5233 10.357s-4.6548 6.4364-5.9206 10.163c-0.63289 1.8632-0.97591 3.8399-0.85009 5.8037s0.73481 3.9148 1.8774 5.5169c1.0729 1.5044 2.5797 2.6598 4.2088 3.5318s3.386 1.4766 5.146 2.0393 3.5362 1.0889 5.2344 1.8172 3.3281 1.6701 4.6435 2.9678c1.5959 1.5744 2.6733 3.627 3.2804 5.785s0.76112 4.4233 0.6798 6.6637c-0.16266 4.4807-1.2495 8.8898-1.4069 13.371-0.0787 2.2404 0.0793 4.5057 0.69149 6.6623s1.6957 4.2062 3.2971 5.7751 3.7422 2.6292 5.9814 2.7382c1.1196 0.0545 2.2531-0.12764 3.2888-0.55629s1.9713-1.1056 2.6809-1.9732c0.69745-0.85282 1.1716-1.8844 1.3795-2.9663s0.15062-2.212-0.15103-3.2716c-0.60328-2.1192-2.1981-3.9103-4.1873-4.8578-1.286-0.61261-2.7213-0.88779-4.1457-0.87307s-2.8385 0.31424-4.1761 0.80406c-2.6752 0.97965-5.0147 2.6942-7.2123 4.5073-11.438 9.437-19.919 21.946-27.37 34.767-3.0253 5.2063-5.9242 10.53-7.8406 16.239s-2.8207 11.858-1.7757 17.788c0.48737 2.7656 1.3907 5.4543 1.7178 8.2434 0.16355 1.3946 0.18052 2.815-0.0728 4.196s-0.78503 2.7244-1.645 3.8344c-1.2842 1.6576-3.2732 2.7202-5.3526 2.9904s-4.2302-0.22808-6.0464-1.276-3.3022-2.6273-4.3531-4.4418-1.6762-3.8588-1.953-5.9373c-0.55348-4.1571 0.26585-8.3738 1.3555-12.424s2.4573-8.0452 3.0347-12.199c0.89037-6.405-0.16487-13.041-2.818-18.938s-6.8778-11.052-12.02-14.974c-10.284-7.843-23.986-10.521-36.777-8.6127s-24.69 8.1123-34.665 16.344-18.15 18.441-25.418 29.139c-2.6823 3.9482-5.2633 7.9888-8.4217 11.567s-6.9616 6.7136-11.439 8.3685c-2.2385 0.82746-4.6282 1.2728-7.0136 1.2001s-4.7654-0.67148-6.8519-1.83-3.8702-2.8848-5.0055-4.984-1.6036-4.5704-1.2134-6.9248c0.53268-3.2138 2.5918-5.9992 5.0432-8.1447s5.3109-3.7598 8.0298-5.5542 5.3672-3.8389 7.128-6.5798c0.88039-1.3704 1.524-2.9053 1.7768-4.5144s0.10447-3.2937-0.52592-4.7957c-0.86864-2.0696-2.5819-3.6715-4.4189-4.961s-3.8411-2.3328-5.6376-3.6782-3.4192-3.0662-4.0936-5.207c-0.33721-1.0704-0.4231-2.2294-0.16919-3.3226s0.85838-2.1146 1.7442-2.8036c0.95566-0.74342 2.1973-1.0706 3.4073-1.0296s2.3903 0.43164 3.4592 1.0003c2.1378 1.1374 3.8243 2.9468 5.7087 4.4675 4.535 3.6597 10.22 5.6314 15.942 6.7394s11.563 1.4167 17.346 2.1373c13.815 1.7215 27.663 5.805 41.424 3.6986 8.4831-1.2985 16.485-4.9245 23.671-9.6164 8.8701-5.7916 16.769-13.429 21.452-22.931 6.6017-13.396 6.2182-29.481 1.4794-43.643-6.199-18.527-19.727-34.49-36.986-43.643" fill="#ececf6" filter="url(#g)"/> <path transform="matrix(1.4218 0 0 1.1044 -255.72 -27.776)" d="m528.08 356.4c-2.6057-6.4732-3.9446-13.544-3.9023-20.608 0.0565-9.4564 2.6251-18.904 7.4422-26.784s11.882-14.147 20.014-17.541c3.8411-1.6029 7.9365-2.5766 12.051-2.5018s8.2502 1.2298 11.723 3.6251 6.2433 6.0712 7.4193 10.351 0.66676 9.1403-1.6242 12.851c-1.6262 2.6342-4.0587 4.6063-6.7195 5.9152s-5.5508 1.9881-8.448 2.3923c-5.7946 0.80834-11.769 0.56555-17.343 2.4651-3.1103 1.0599-6.0209 2.7721-8.6054 4.9291-7.0622 5.8941-11.572 15.248-12.007 24.906" fill="#001454" fill-opacity=".9961" filter="url(#s)" stroke="#000" stroke-width=".89954"/> <path transform="matrix(.41268 -.43097 .39777 .44713 192 383.44)" d="m431.74 315.96c37.905 1.0643 37.73-27.227 74.94-20.489 15.1 2.734 53.242 23.621 33.473 8.6948-12.112-9.145 13.373 1.3131 18.723 4.2276 2.6753 1.4572 5.1081 3.3345 6.9386 5.6483s3.0399 5.078 3.2198 7.9363c0.24292 3.8598 5.0013 38.1 2.1927 40.973s-13.115-25.593-17.2-24.705-8.3757 0.79387-12.498 0.0668-8.0903-2.0735-11.914-3.6676c-7.0799-2.9515-13.697-6.7508-20.376-10.41-11.011-6.033-22.255-11.718-33.838-16.759-29.267-12.736-14.585 9.9211-46.659 5.9084" fill="#fff" filter="url(#q)"/> <path transform="matrix(-.45904 -.05617 .04176 -.61734 447.43 645.76)" d="m383.2 282.35c37.905 1.0643 75.715 4.9912 112.93 11.729 15.1 2.734 30.097 5.9289 45.133 8.9472 6.0735 1.2192 12.275 2.4521 17.625 5.3666 2.6753 1.4572 5.1081 3.3345 6.9386 5.6483s3.0399 5.078 3.2198 7.9363c0.24292 3.8598-1.4338 7.7281-4.2424 10.601s-6.6804 4.7793-10.765 5.6672-8.3757 0.79387-12.498 0.0668-8.0903-2.0735-11.914-3.6676c-7.0799-2.9515-13.697-6.7508-20.376-10.41-11.011-6.033-22.255-11.718-33.838-16.759-29.267-12.736-60.664-21.309-92.738-25.322" fill="#001454" fill-opacity=".9961" filter="url(#m)"/> <path transform="matrix(-.47799 -.09634 .09072 -.53717 417.41 643.89)" d="m408.5 249.94c37.905 1.0643 50.413 37.4 87.624 44.138 15.1 2.734 30.097 5.9289 45.133 8.9472 6.0735 1.2192 12.275 2.4521 17.625 5.3666 2.6753 1.4572 5.1081 3.3345 6.9386 5.6483s3.0399 5.078 3.2198 7.9363c0.24292 3.8598-1.4338 7.7281-4.2424 10.601s-6.6804 4.7793-10.765 5.6672-8.3757 0.79387-12.498 0.0668-8.0903-2.0735-11.914-3.6676c-7.0799-2.9515-13.697-6.7508-20.376-10.41-11.011-6.033-22.255-11.718-33.838-16.759-29.267-12.736-38.824-51.239-70.898-55.252" fill="#fff" filter="url(#l)"/> <path transform="matrix(.56692 0 0 .71164 138.32 60.634)" d="m252.62 366.03c-14.725-7.0506-27.947-17.223-38.538-29.649-14.177-16.634-23.57-37.37-26.327-59.053s1.1908-44.228 11.505-63.498c4.8717-9.1015 11.177-17.519 19.101-24.134s17.522-11.376 27.734-12.88 21.024 0.38332 29.722 5.942 15.072 14.895 16.328 25.142c0.89124 7.2741-0.74831 14.712-3.8231 21.364s-7.536 12.578-12.426 18.036c-9.7809 10.915-21.491 20.285-29.205 32.747-4.3045 6.9536-7.2444 14.721-8.8933 22.731-4.5056 21.889 1.0613 45.645 14.822 63.252" fill="#e8ebf4" filter="url(#u)" stroke="#000" stroke-width="1.7746"/> </svg>